<svg width="26" height="26" viewBox="0 0 26 26" fill="none" xmlns="http://www.w3.org/2000/svg">
<path d="M11.8587 1.51246C12.218 0.406884 13.782 0.406888 14.1413 1.51246L16.3228 8.22655C16.4835 8.72098 16.9442 9.05573 17.4641 9.05573H24.5237C25.6862 9.05573 26.1695 10.5433 25.229 11.2265L19.5177 15.3761C19.0971 15.6817 18.9211 16.2233 19.0818 16.7177L21.2633 23.4318C21.6225 24.5374 20.3571 25.4567 19.4167 24.7735L13.7053 20.6239C13.2848 20.3183 12.7152 20.3183 12.2947 20.6239L6.58331 24.7735C5.64285 25.4567 4.37748 24.5374 4.7367 23.4318L6.91824 16.7177C7.07889 16.2233 6.9029 15.6817 6.48232 15.3761L0.770971 11.2265C-0.169486 10.5433 0.313848 9.05573 1.47632 9.05573H8.53593C9.0558 9.05573 9.51654 8.72098 9.67719 8.22655L11.8587 1.51246Z" fill="#FAD092"/>
</svg>
